<svg width="17" height="17" viewBox="0 0 17 17" fill="none" xmlns="http://www.w3.org/2000/svg">
<path d="M5.51794 5.66661L11.4821 5.66661C11.7176 5.66627 11.9483 5.73261 12.1476 5.85797C12.3469 5.98332 12.5067 6.16256 12.6084 6.37494C12.7274 6.62692 12.7732 6.90727 12.7407 7.18405C12.7081 7.46082 12.5984 7.72288 12.4242 7.94036L9.44211 11.5529C9.32508 11.6879 9.18039 11.7962 9.01785 11.8704C8.85531 11.9446 8.67871 11.983 8.50003 11.983C8.32134 11.983 8.14474 11.9446 7.9822 11.8704C7.81966 11.7962 7.67497 11.6879 7.55794 11.5529L4.57586 7.94036C4.40161 7.72288 4.29195 7.46082 4.25939 7.18405C4.22683 6.90727 4.27267 6.62692 4.39169 6.37494C4.49337 6.16256 4.65311 5.98332 4.85243 5.85797C5.05174 5.73261 5.28249 5.66627 5.51794 5.66661Z" fill="#CB2A49"/>
</svg>
