<svg width="32" height="32" viewBox="0 0 32 32" fill="none" xmlns="http://www.w3.org/2000/svg">
<path d="M7.1847 5.80022L15.9961 14.6051L24.7139 5.88862C25.308 5.35952 25.9229 5.67542 26.1686 5.94062C26.3262 6.13267 26.4075 6.37607 26.3969 6.62429C26.3864 6.87251 26.2847 7.10813 26.1114 7.28612L17.3923 16.0013L26.1114 24.7139C26.4988 25.0389 26.4988 25.6759 26.1881 26.0321C25.8761 26.387 25.3041 26.5924 24.7646 26.1712L15.9961 17.3975L7.2172 26.1751C6.8324 26.5196 6.198 26.4494 5.8847 26.1075C5.5701 25.7643 5.4505 25.1715 5.8522 24.7529L14.5999 16.0013L5.8886 7.28612C5.5701 6.93512 5.4596 6.29292 5.8886 5.88862C6.3176 5.48432 6.9572 5.54022 7.1847 5.80022Z" fill="white" fill-opacity="0.7"/>
</svg>
