<svg width="89" height="24" viewBox="0 0 89 24" fill="none" xmlns="http://www.w3.org/2000/svg">
<path d="M0.324219 0.392578H3.81055V17.3926C3.81055 18.2559 4.11491 18.9919 4.72363 19.6006C5.33236 20.2093 6.06283 20.5137 6.91504 20.5137H18.6191V24H6.91504C5.70866 24 4.60189 23.7067 3.59473 23.1201C2.59863 22.5225 1.80176 21.7256 1.2041 20.7295C0.617513 19.7223 0.324219 18.61 0.324219 17.3926V0.392578ZM20.9434 7.0332C20.9434 5.80469 21.2588 4.69238 21.8896 3.69629C22.5316 2.68913 23.3838 1.88672 24.4463 1.28906C25.5088 0.691406 26.6875 0.392578 27.9824 0.392578H33.5107C34.8057 0.392578 35.9844 0.691406 37.0469 1.28906C38.1204 1.88672 38.9727 2.68913 39.6035 3.69629C40.2344 4.69238 40.5498 5.80469 40.5498 7.0332V17.3594C40.5498 18.5768 40.2344 19.6891 39.6035 20.6963C38.9727 21.7035 38.1204 22.5059 37.0469 23.1035C35.9844 23.7012 34.8057 24 33.5107 24H27.9824C26.6875 24 25.5088 23.7012 24.4463 23.1035C23.3838 22.5059 22.5316 21.7035 21.8896 20.6963C21.2588 19.6891 20.9434 18.5768 20.9434 17.3594V7.0332ZM24.4463 17.376C24.4463 18.2393 24.7894 18.9808 25.4756 19.6006C26.1729 20.2093 27.0085 20.5137 27.9824 20.5137H33.5107C34.4958 20.5137 35.3314 20.2093 36.0176 19.6006C36.7038 18.9808 37.0469 18.2393 37.0469 17.376V7.0166C37.0469 6.15332 36.7038 5.41732 36.0176 4.80859C35.3314 4.1888 34.4958 3.87891 33.5107 3.87891H27.9824C27.0085 3.87891 26.1729 4.1888 25.4756 4.80859C24.7894 5.41732 24.4463 6.15332 24.4463 7.0166V17.376ZM44.8828 7.0332C44.8828 5.80469 45.1982 4.69238 45.8291 3.69629C46.471 2.68913 47.3232 1.88672 48.3857 1.28906C49.4482 0.691406 50.627 0.392578 51.9219 0.392578H63.0947V3.87891H51.9219C50.9479 3.87891 50.1123 4.1888 49.415 4.80859C48.7288 5.41732 48.3857 6.15332 48.3857 7.0166V17.376C48.3857 18.2393 48.7288 18.9808 49.415 19.6006C50.1123 20.2093 50.9479 20.5137 51.9219 20.5137H57.4502C58.4352 20.5137 59.2708 20.2093 59.957 19.6006C60.6432 18.9808 60.9863 18.2393 60.9863 17.376V14.2881H54.5781V10.8018H64.4893V17.3594C64.4893 18.5768 64.1738 19.6891 63.543 20.6963C62.9121 21.7035 62.0599 22.5059 60.9863 23.1035C59.9238 23.7012 58.7451 24 57.4502 24H51.9219C50.627 24 49.4482 23.7012 48.3857 23.1035C47.3232 22.5059 46.471 21.7035 45.8291 20.6963C45.1982 19.6891 44.8828 18.5768 44.8828 17.3594V7.0332ZM68.8223 7.0332C68.8223 5.80469 69.1377 4.69238 69.7686 3.69629C70.4105 2.68913 71.2627 1.88672 72.3252 1.28906C73.3877 0.691406 74.5664 0.392578 75.8613 0.392578H81.3896C82.6846 0.392578 83.8633 0.691406 84.9258 1.28906C85.9993 1.88672 86.8516 2.68913 87.4824 3.69629C88.1133 4.69238 88.4287 5.80469 88.4287 7.0332V17.3594C88.4287 18.5768 88.1133 19.6891 87.4824 20.6963C86.8516 21.7035 85.9993 22.5059 84.9258 23.1035C83.8633 23.7012 82.6846 24 81.3896 24H75.8613C74.5664 24 73.3877 23.7012 72.3252 23.1035C71.2627 22.5059 70.4105 21.7035 69.7686 20.6963C69.1377 19.6891 68.8223 18.5768 68.8223 17.3594V7.0332ZM72.3252 17.376C72.3252 18.2393 72.6683 18.9808 73.3545 19.6006C74.0518 20.2093 74.8874 20.5137 75.8613 20.5137H81.3896C82.3747 20.5137 83.2103 20.2093 83.8965 19.6006C84.5827 18.9808 84.9258 18.2393 84.9258 17.376V7.0166C84.9258 6.15332 84.5827 5.41732 83.8965 4.80859C83.2103 4.1888 82.3747 3.87891 81.3896 3.87891H75.8613C74.8874 3.87891 74.0518 4.1888 73.3545 4.80859C72.6683 5.41732 72.3252 6.15332 72.3252 7.0166V17.376Z" fill="#F26F37"/>
</svg>
