<svg width="22" height="22" viewBox="0 0 22 22" fill="none" xmlns="http://www.w3.org/2000/svg">
<path d="M19.1977 15.432C18.6953 12.4332 17.2595 9.66932 15.0947 7.53404C14.6208 7.07296 14.3843 6.84288 13.8609 6.63021C13.3375 6.41663 12.8874 6.41663 11.9882 6.41663H10.0118C9.11257 6.41663 8.66248 6.41663 8.13907 6.63021C7.61657 6.84288 7.37823 7.07296 6.90523 7.53404C4.74048 9.66932 3.30466 12.4332 2.80223 15.432C2.35582 18.1252 4.83998 20.1666 7.61565 20.1666H14.3843C17.1609 20.1666 19.646 18.1252 19.1968 15.432" stroke="white" stroke-opacity="0.8" stroke-width="1.5" stroke-linecap="round" stroke-linejoin="round"/>
<path d="M12.4914 11.8424C12.2934 11.11 11.2842 10.45 10.0733 10.9441C8.86234 11.4381 8.67075 13.0267 10.5013 13.1963C11.33 13.2724 11.869 13.1074 12.3631 13.574C12.8581 14.0396 12.9498 15.3367 11.6857 15.686C10.4234 16.0352 9.17217 15.4898 9.0365 14.7143M10.8552 10.076V10.7736M10.8552 15.7932V16.4936M6.65225 4.07273C6.4625 3.79773 6.18842 3.42373 6.75492 3.3394C7.337 3.2514 7.94109 3.64923 8.53325 3.6419C9.06767 3.63365 9.33992 3.39623 9.63325 3.05706C9.94125 2.70048 10.4179 1.83331 11 1.83331C11.5821 1.83331 12.0588 2.70048 12.3668 3.05706C12.6601 3.39623 12.9323 3.63456 13.4668 3.64098C14.0589 3.65015 14.663 3.2514 15.2451 3.33848C15.8116 3.42373 15.5375 3.79681 15.3478 4.07181L14.4934 5.31756C14.1268 5.84923 13.9443 6.11506 13.5612 6.26631C13.178 6.41756 12.6839 6.41665 11.6948 6.41665H10.3052C9.31517 6.41665 8.82109 6.41665 8.43884 6.26631C8.05659 6.11598 7.87325 5.84831 7.50659 5.31665L6.65225 4.07273Z" stroke="white" stroke-opacity="0.8" stroke-width="1.5" stroke-linecap="round" stroke-linejoin="round"/>
</svg>
