<svg width="22" height="22" viewBox="0 0 22 22" fill="none" xmlns="http://www.w3.org/2000/svg">
<path fill-rule="evenodd" clip-rule="evenodd" d="M13.3256 3.11301C14.3916 2.40992 15.8125 3.17534 15.8125 4.45226V17.5478C15.8125 18.8256 14.3916 19.5901 13.3256 18.887L7.82556 15.2616C7.78835 15.2368 7.7447 15.2234 7.69998 15.2231H5.04165C4.37308 15.2231 3.7319 14.9575 3.25915 14.4848C2.7864 14.012 2.52081 13.3708 2.52081 12.7023V9.29775C2.52081 8.62919 2.7864 7.988 3.25915 7.51526C3.7319 7.04251 4.37308 6.77692 5.04165 6.77692H7.69998C7.74492 6.77707 7.78891 6.764 7.82648 6.73934L13.3256 3.11301ZM18.7916 7.5625C18.974 7.5625 19.1489 7.63494 19.2778 7.76387C19.4067 7.8928 19.4791 8.06767 19.4791 8.25V13.75C19.4791 13.9323 19.4067 14.1072 19.2778 14.2361C19.1489 14.3651 18.974 14.4375 18.7916 14.4375C18.6093 14.4375 18.4344 14.3651 18.3055 14.2361C18.1766 14.1072 18.1041 13.9323 18.1041 13.75V8.25C18.1041 8.06767 18.1766 7.8928 18.3055 7.76387C18.4344 7.63494 18.6093 7.5625 18.7916 7.5625Z" fill="white" fill-opacity="0.8"/>
</svg>
