<svg width="22" height="22" viewBox="0 0 22 22" fill="none" xmlns="http://www.w3.org/2000/svg">
<path fill-rule="evenodd" clip-rule="evenodd" d="M20.1667 5.50005C20.1666 4.97145 20.0523 4.44912 19.8315 3.96885C19.6107 3.48859 19.2886 3.06174 18.8874 2.71757C18.4862 2.3734 18.0154 2.12004 17.5071 1.97486C16.9988 1.82969 16.4652 1.79612 15.9427 1.87647L9.52604 2.86372C8.66027 2.99686 7.87077 3.43555 7.30043 4.10038C7.27893 4.12545 7.25779 4.15078 7.23702 4.17636L8.54716 5.4865C8.59082 5.41947 8.63903 5.35505 8.6916 5.29373C8.97679 4.96112 9.37167 4.74165 9.80471 4.67505L16.2214 3.6878C16.4827 3.64761 16.7497 3.66442 17.0039 3.73709C17.2581 3.80976 17.4936 3.93656 17.6943 4.1088C17.8949 4.28104 18.0559 4.49463 18.1662 4.73493C18.2765 4.97523 18.3335 5.23655 18.3334 5.50097V11.771C17.7053 11.473 16.9974 11.3872 16.3163 11.5263C15.8795 11.6155 15.4688 11.7942 15.1088 12.0482L16.4525 13.3918C16.612 13.3287 16.7835 13.2954 16.9584 13.2954C17.323 13.2954 17.6728 13.4402 17.9306 13.6981C18.1885 13.956 18.3334 14.3057 18.3334 14.6704C18.3334 14.8453 18.3001 15.0167 18.2369 15.1763L19.5799 16.5193C19.9612 15.9789 20.1666 15.3332 20.1667 14.6704V5.50005ZM8.25004 9.3107L6.41671 7.47737V14.521C5.78863 14.223 5.08077 14.1372 4.39967 14.2763C3.71858 14.4154 3.10108 14.772 2.64013 15.2923C2.17918 15.8127 1.89971 16.4687 1.84378 17.1616C1.78785 17.8545 1.95848 18.5468 2.33 19.1344C2.70151 19.7219 3.25382 20.1729 3.90378 20.4195C4.55375 20.666 5.26621 20.6948 5.93395 20.5015C6.60169 20.3082 7.18857 19.9032 7.60627 19.3475C8.02398 18.7918 8.2499 18.1155 8.25004 17.4204V9.3107ZM16.8141 17.8748L13.7533 14.8139C13.7783 15.3691 13.9472 15.9108 14.2467 16.3844C14.6182 16.9719 15.1705 17.4229 15.8204 17.6695C16.1408 17.791 16.4763 17.8596 16.8141 17.8748ZM6.41671 17.4204C6.41671 17.2398 6.38115 17.061 6.31204 16.8942C6.24294 16.7274 6.14166 16.5758 6.01398 16.4481C5.8863 16.3204 5.73472 16.2191 5.5679 16.15C5.40108 16.0809 5.22228 16.0454 5.04171 16.0454C4.86114 16.0454 4.68234 16.0809 4.51552 16.15C4.3487 16.2191 4.19712 16.3204 4.06944 16.4481C3.94176 16.5758 3.84048 16.7274 3.77138 16.8942C3.70228 17.061 3.66671 17.2398 3.66671 17.4204C3.66671 17.7851 3.81158 18.1348 4.06944 18.3927C4.3273 18.6505 4.67704 18.7954 5.04171 18.7954C5.40638 18.7954 5.75612 18.6505 6.01398 18.3927C6.27184 18.1348 6.41671 17.7851 6.41671 17.4204Z" fill="white" fill-opacity="0.8"/>
<path d="M4 4L20 20" stroke="white" stroke-opacity="0.8" stroke-width="1.5" stroke-linecap="round"/>
</svg>
