<svg width="22" height="22" viewBox="0 0 22 22" fill="none" xmlns="http://www.w3.org/2000/svg">
<path fill-rule="evenodd" clip-rule="evenodd" d="M20.1666 5.49999C20.1666 4.97139 20.0522 4.44906 19.8314 3.96879C19.6106 3.48853 19.2886 3.06168 18.8874 2.71751C18.4862 2.37334 18.0153 2.11998 17.507 1.9748C16.9988 1.82963 16.4651 1.79606 15.9426 1.87641L9.52598 2.86366C8.66021 2.9968 7.87071 3.43549 7.30037 4.10032C6.73003 4.76516 6.41654 5.61221 6.41665 6.48816V14.5209C5.78857 14.223 5.08071 14.1371 4.39961 14.2762C3.71851 14.4153 3.10102 14.7719 2.64007 15.2923C2.17912 15.8126 1.89965 16.4686 1.84372 17.1615C1.78779 17.8544 1.95842 18.5467 2.32994 19.1343C2.70145 19.7219 3.25376 20.1729 3.90372 20.4194C4.55369 20.666 5.26615 20.6948 5.93389 20.5014C6.60163 20.3081 7.18851 19.9031 7.60621 19.3475C8.02392 18.7918 8.24984 18.1155 8.24998 17.4203V6.48816C8.24971 6.05002 8.40635 5.62628 8.69154 5.29367C8.97673 4.96106 9.37161 4.74159 9.80465 4.67499L16.2213 3.68774C16.4827 3.64755 16.7496 3.66436 17.0038 3.73703C17.2581 3.8097 17.4936 3.9365 17.6942 4.10874C17.8948 4.28097 18.0558 4.49457 18.1661 4.73487C18.2764 4.97517 18.3335 5.23649 18.3333 5.50091V11.7709C17.7052 11.473 16.9974 11.3871 16.3163 11.5262C15.6352 11.6653 15.0177 12.0219 14.5567 12.5423C14.0958 13.0626 13.8163 13.7186 13.7604 14.4115C13.7045 15.1044 13.8751 15.7967 14.2466 16.3843C14.6181 16.9719 15.1704 17.4229 15.8204 17.6694C16.4704 17.916 17.1828 17.9448 17.8506 17.7514C18.5183 17.5581 19.1052 17.1531 19.5229 16.5975C19.9406 16.0418 20.1665 15.3655 20.1666 14.6703V5.49999ZM18.3333 14.6703C18.3333 14.3056 18.1884 13.9559 17.9306 13.6981C17.6727 13.4402 17.323 13.2953 16.9583 13.2953C16.5936 13.2953 16.2439 13.4402 15.986 13.6981C15.7282 13.9559 15.5833 14.3056 15.5833 14.6703C15.5833 15.035 15.7282 15.3847 15.986 15.6426C16.2439 15.9005 16.5936 16.0453 16.9583 16.0453C17.323 16.0453 17.6727 15.9005 17.9306 15.6426C18.1884 15.3847 18.3333 15.035 18.3333 14.6703ZM6.41665 17.4203C6.41665 17.2398 6.38108 17.061 6.31198 16.8941C6.24288 16.7273 6.1416 16.5757 6.01392 16.4481C5.88624 16.3204 5.73466 16.2191 5.56784 16.15C5.40102 16.0809 5.22222 16.0453 5.04165 16.0453C4.86108 16.0453 4.68228 16.0809 4.51546 16.15C4.34864 16.2191 4.19706 16.3204 4.06938 16.4481C3.9417 16.5757 3.84041 16.7273 3.77131 16.8941C3.70221 17.061 3.66665 17.2398 3.66665 17.4203C3.66665 17.785 3.81151 18.1347 4.06938 18.3926C4.32724 18.6505 4.67698 18.7953 5.04165 18.7953C5.40632 18.7953 5.75606 18.6505 6.01392 18.3926C6.27178 18.1347 6.41665 17.785 6.41665 17.4203Z" fill="white" fill-opacity="0.8"/>
</svg>
