<svg width="22" height="22" viewBox="0 0 22 22" fill="none" xmlns="http://www.w3.org/2000/svg">
<path fill-rule="evenodd" clip-rule="evenodd" d="M16.0141 8.68084C16.1431 8.55209 16.3178 8.47978 16.5 8.47978C16.6822 8.47978 16.8569 8.55209 16.9858 8.68084L18.3333 10.0283L19.6808 8.68084C19.8111 8.5594 19.9835 8.49328 20.1616 8.49643C20.3397 8.49957 20.5097 8.57172 20.6356 8.69769C20.7616 8.82365 20.8337 8.99358 20.8369 9.17169C20.84 9.3498 20.7739 9.52218 20.6525 9.6525L19.3059 11L20.6534 12.3475C20.7786 12.4772 20.8478 12.6509 20.8461 12.8312C20.8445 13.0114 20.7721 13.1838 20.6446 13.3113C20.517 13.4387 20.3446 13.5109 20.1643 13.5124C19.9841 13.5138 19.8104 13.4445 19.6808 13.3192L18.3333 11.9717L16.9858 13.3192C16.8555 13.4406 16.6831 13.5067 16.505 13.5036C16.3269 13.5004 16.157 13.4283 16.031 13.3023C15.905 13.1764 15.8329 13.0064 15.8297 12.8283C15.8266 12.6502 15.8927 12.4778 16.0141 12.3475L17.3616 11L16.0141 9.6525C15.8854 9.5236 15.8131 9.34886 15.8131 9.16667C15.8131 8.98448 15.8854 8.80974 16.0141 8.68084ZM11.9506 3.11301C13.0166 2.40992 14.4375 3.17534 14.4375 4.45226V17.5478C14.4375 18.8256 13.0166 19.5901 11.9506 18.887L6.45056 15.2616C6.41336 15.2368 6.3697 15.2234 6.32498 15.2231H3.66665C2.99808 15.2231 2.3569 14.9575 1.88415 14.4848C1.4114 14.012 1.14581 13.3708 1.14581 12.7023V9.29775C1.14581 8.62919 1.4114 7.988 1.88415 7.51526C2.3569 7.04251 2.99808 6.77692 3.66665 6.77692H6.32498C6.36992 6.77707 6.41391 6.764 6.45148 6.73934L11.9506 3.11301Z" fill="white" fill-opacity="0.5"/>
</svg>
